<?xml version="1.0" encoding="UTF-8" standalone="no"?>
<!DOCTYPE svg PUBLIC "-//W3C//DTD SVG 1.1//EN" "http://www.w3.org/Graphics/SVG/1.1/DTD/svg11.dtd">
<svg width="100%" height="100%" viewBox="0 0 320 404" version="1.1" xmlns="http://www.w3.org/2000/svg" xmlns:xlink="http://www.w3.org/1999/xlink" xml:space="preserve" xmlns:serif="http://www.serif.com/" style="fill-rule:evenodd;clip-rule:evenodd;stroke-linejoin:round;stroke-miterlimit:2;">
    <g>
        <g transform="matrix(-0.707107,0.707107,-0.707107,-0.707107,201.436,406.589)">
            <circle cx="16.511" cy="245.013" r="132.59" style="fill:rgb(233,178,136);"/>
        </g>
        <g transform="matrix(-0.707107,0.707107,-0.707107,-0.707107,201.901,123.614)">
            <circle cx="75.35" cy="103.622" r="29.777" style="fill:rgb(233,178,136);"/>
        </g>
        <g transform="matrix(-0.707107,0.707107,-0.707107,-0.707107,349.611,128.738)">
            <circle cx="148.143" cy="136.776" r="44.297" style="fill:rgb(233,178,136);"/>
        </g>
        <g transform="matrix(-0.707107,0.707107,-0.707107,-0.707107,486.678,321.848)">
            <circle cx="176.682" cy="261.718" r="56.848" style="fill:rgb(233,178,136);"/>
        </g>
        <g transform="matrix(-0.707107,0.707107,-0.707107,-0.707107,606.699,210.185)">
            <circle cx="259.819" cy="230.744" r="23.842" style="fill:rgb(233,178,136);"/>
        </g>
        <g transform="matrix(-0.707107,0.707107,-0.707107,-0.707107,423.143,165.1)">
            <circle cx="177.378" cy="170.186" r="31.5" style="fill:rgb(233,178,136);"/>
        </g>
        <g transform="matrix(-0.707107,0.707107,-0.707107,-0.707107,607.763,350.348)">
            <circle cx="231.322" cy="301.046" r="22.887" style="fill:rgb(233,178,136);"/>
        </g>
    </g>
</svg>
