<?xml version="1.0" encoding="UTF-8" standalone="no"?>
<!DOCTYPE svg PUBLIC "-//W3C//DTD SVG 1.1//EN" "http://www.w3.org/Graphics/SVG/1.1/DTD/svg11.dtd">
<svg width="100%" height="100%" viewBox="0 0 512 512" version="1.1" xmlns="http://www.w3.org/2000/svg" xmlns:xlink="http://www.w3.org/1999/xlink" xml:space="preserve" xmlns:serif="http://www.serif.com/" style="fill-rule:evenodd;clip-rule:evenodd;stroke-linejoin:round;stroke-miterlimit:2;">
    <path d="M396.8,352L419.2,352C425.6,352 432,345.6 432,339.2L432,108.8C432,102.4 425.6,96 419.2,96L396.8,96C390.4,96 384,102.4 384,108.8L384,339.2C384,345.6 390.4,352 396.8,352ZM204.8,352L227.2,352C233.6,352 240,345.6 240,339.2L240,140.8C240,134.4 233.6,128 227.2,128L204.8,128C198.4,128 192,134.4 192,140.8L192,339.2C192,345.6 198.4,352 204.8,352ZM300.8,352L323.2,352C329.6,352 336,345.6 336,339.2L336,204.8C336,198.4 329.6,192 323.2,192L300.8,192C294.4,192 288,198.4 288,204.8L288,339.2C288,345.6 294.4,352 300.8,352ZM496,400L48,400L48,80C48,71.16 40.84,64 32,64L16,64C7.16,64 0,71.16 0,80L0,416C0,433.67 14.33,448 32,448L496,448C504.84,448 512,440.84 512,432L512,416C512,407.16 504.84,400 496,400ZM108.8,352L131.2,352C137.6,352 144,345.6 144,339.2L144,268.8C144,262.4 137.6,256 131.2,256L108.8,256C102.4,256 96,262.4 96,268.8L96,339.2C96,345.6 102.4,352 108.8,352Z" style="fill:url(#_Linear1);fill-rule:nonzero;"/>
    <defs>
        <linearGradient id="_Linear1" x1="0" y1="0" x2="1" y2="0" gradientUnits="userSpaceOnUse" gradientTransform="matrix(-449,365,-365,-449,449,74)"><stop offset="0" style="stop-color:rgb(93,210,240);stop-opacity:1"/><stop offset="1" style="stop-color:rgb(230,130,255);stop-opacity:1"/></linearGradient>
    </defs>
</svg>
