<?xml version="1.0" encoding="UTF-8" standalone="no"?>
<!DOCTYPE svg PUBLIC "-//W3C//DTD SVG 1.1//EN" "http://www.w3.org/Graphics/SVG/1.1/DTD/svg11.dtd">
<svg width="100%" height="100%" viewBox="0 0 640 512" version="1.1" xmlns="http://www.w3.org/2000/svg" xmlns:xlink="http://www.w3.org/1999/xlink" xml:space="preserve" xmlns:serif="http://www.serif.com/" style="fill-rule:evenodd;clip-rule:evenodd;stroke-linejoin:round;stroke-miterlimit:2;">
    <g>
        <g transform="matrix(0.966726,0,0,0.971015,-0.000312443,0.880024)">
            <path d="M386.3,286.1L420,302.9C430.1,308.7 434.5,321 430.5,332C421.6,356.2 404.1,378.4 387.9,397.8C380.5,406.7 367.7,408.9 357.6,403.1L328.5,386.3C312.5,400 293.9,410.9 273.6,418L273.6,451.6C273.6,463.2 265.3,473.2 253.9,475.2C229.3,479.4 203.5,479.6 178,475.2C166.5,473.2 158,463.3 158,451.6L158,418C137.7,410.8 119.1,400 103.1,386.3L74,403C64,408.8 51.1,406.6 43.7,397.7C27.5,378.3 10.4,356.1 1.5,332C-2.5,321.1 1.9,308.8 12,302.9L45.3,286.1C41.4,265.2 41.4,243.7 45.3,222.7L12,205.8C1.9,200 -2.6,187.7 1.5,176.8C10.4,152.6 27.5,130.4 43.7,111C51.1,102.1 63.9,99.9 74,105.7L103.1,122.5C119.1,108.8 137.7,97.9 158,90.8L158,57.1C158,45.6 166.2,35.6 177.6,33.6C202.2,29.4 228.1,29.2 253.6,33.5C265.1,35.5 273.6,45.4 273.6,57.1L273.6,90.7C293.9,97.9 312.5,108.7 328.5,122.4L357.6,105.6C367.6,99.8 380.5,102 387.9,110.9C404.1,130.3 421.1,152.5 430,176.7C434,187.6 430.1,199.9 420,205.8L386.3,222.6C390.2,243.6 390.2,265.1 386.3,286.1ZM553.538,430.138L554.4,378.2M216.123,108.152C296.742,108.152 362.194,173.604 362.194,254.222C362.194,334.841 296.742,400.293 216.123,400.293C135.505,400.293 70.053,334.841 70.053,254.222C70.053,173.604 135.505,108.152 216.123,108.152ZM217.799,151.781C274.665,151.781 320.833,197.949 320.833,254.815C320.833,311.681 274.665,357.849 217.799,357.849C160.933,357.849 114.766,311.681 114.766,254.815C114.766,197.949 160.933,151.781 217.799,151.781ZM268.7,307.2C298.3,268.7 291.125,227.475 266.925,203.275C242.725,179.075 201.5,171.9 163,201.5C103.8,278.5 191.7,366.4 268.7,307.2ZM501.6,132.2L553.538,131.338" style="fill:rgb(180,197,228);"/>
        </g>
        <g transform="matrix(0.389599,0.278847,-0.278847,0.389599,515.497,-28.5039)">
            <path d="M386.3,286.1L420,302.9C430.1,308.7 434.5,321 430.5,332C421.6,356.2 404.1,378.4 387.9,397.8C380.5,406.7 367.7,408.9 357.6,403.1L328.5,386.3C312.5,400 293.9,410.9 273.6,418L273.6,451.6C273.6,463.2 265.3,473.2 253.9,475.2C229.3,479.4 203.5,479.6 178,475.2C166.5,473.2 158,463.3 158,451.6L158,418C137.7,410.8 119.1,400 103.1,386.3L74,403C64,408.8 51.1,406.6 43.7,397.7C27.5,378.3 10.4,356.1 1.5,332C-2.5,321.1 1.9,308.8 12,302.9L45.3,286.1C41.4,265.2 41.4,243.7 45.3,222.7L12,205.8C1.9,200 -2.6,187.7 1.5,176.8C10.4,152.6 27.5,130.4 43.7,111C51.1,102.1 63.9,99.9 74,105.7L103.1,122.5C119.1,108.8 137.7,97.9 158,90.8L158,57.1C158,45.6 166.2,35.6 177.6,33.6C202.2,29.4 228.1,29.2 253.6,33.5C265.1,35.5 273.6,45.4 273.6,57.1L273.6,90.7C293.9,97.9 312.5,108.7 328.5,122.4L357.6,105.6C367.6,99.8 380.5,102 387.9,110.9C404.1,130.3 421.1,152.5 430,176.7C434,187.6 430.1,199.9 420,205.8L386.3,222.6C390.2,243.6 390.2,265.1 386.3,286.1ZM553.538,430.138L554.4,378.2M216.123,108.152C296.742,108.152 362.194,173.604 362.194,254.222C362.194,334.841 296.742,400.293 216.123,400.293C135.505,400.293 70.053,334.841 70.053,254.222C70.053,173.604 135.505,108.152 216.123,108.152ZM217.799,151.781C274.665,151.781 320.833,197.949 320.833,254.815C320.833,311.681 274.665,357.849 217.799,357.849C160.933,357.849 114.766,311.681 114.766,254.815C114.766,197.949 160.933,151.781 217.799,151.781ZM268.7,307.2C298.3,268.7 291.125,227.475 266.925,203.275C242.725,179.075 201.5,171.9 163,201.5C103.8,278.5 191.7,366.4 268.7,307.2ZM501.6,132.2L553.538,131.338" style="fill:rgb(180,197,228);"/>
        </g>
        <g transform="matrix(0.478512,0.13917,-0.13917,0.478512,454.088,206.746)">
            <path d="M386.3,286.1L420,302.9C430.1,308.7 434.5,321 430.5,332C421.6,356.2 404.1,378.4 387.9,397.8C380.5,406.7 367.7,408.9 357.6,403.1L328.5,386.3C312.5,400 293.9,410.9 273.6,418L273.6,451.6C273.6,463.2 265.3,473.2 253.9,475.2C229.3,479.4 203.5,479.6 178,475.2C166.5,473.2 158,463.3 158,451.6L158,418C137.7,410.8 119.1,400 103.1,386.3L74,403C64,408.8 51.1,406.6 43.7,397.7C27.5,378.3 10.4,356.1 1.5,332C-2.5,321.1 1.9,308.8 12,302.9L45.3,286.1C41.4,265.2 41.4,243.7 45.3,222.7L12,205.8C1.9,200 -2.6,187.7 1.5,176.8C10.4,152.6 27.5,130.4 43.7,111C51.1,102.1 63.9,99.9 74,105.7L103.1,122.5C119.1,108.8 137.7,97.9 158,90.8L158,57.1C158,45.6 166.2,35.6 177.6,33.6C202.2,29.4 228.1,29.2 253.6,33.5C265.1,35.5 273.6,45.4 273.6,57.1L273.6,90.7C293.9,97.9 312.5,108.7 328.5,122.4L357.6,105.6C367.6,99.8 380.5,102 387.9,110.9C404.1,130.3 421.1,152.5 430,176.7C434,187.6 430.1,199.9 420,205.8L386.3,222.6C390.2,243.6 390.2,265.1 386.3,286.1ZM553.538,430.138L554.4,378.2M216.123,108.152C296.742,108.152 362.194,173.604 362.194,254.222C362.194,334.841 296.742,400.293 216.123,400.293C135.505,400.293 70.053,334.841 70.053,254.222C70.053,173.604 135.505,108.152 216.123,108.152ZM217.799,151.781C274.665,151.781 320.833,197.949 320.833,254.815C320.833,311.681 274.665,357.849 217.799,357.849C160.933,357.849 114.766,311.681 114.766,254.815C114.766,197.949 160.933,151.781 217.799,151.781ZM268.7,307.2C298.3,268.7 291.125,227.475 266.925,203.275C242.725,179.075 201.5,171.9 163,201.5C103.8,278.5 191.7,366.4 268.7,307.2ZM501.6,132.2L553.538,131.338" style="fill:rgb(180,197,228);"/>
        </g>
    </g>
</svg>
