<?xml version="1.0" encoding="UTF-8" standalone="no"?>
<!DOCTYPE svg PUBLIC "-//W3C//DTD SVG 1.1//EN" "http://www.w3.org/Graphics/SVG/1.1/DTD/svg11.dtd">
<svg width="100%" height="100%" viewBox="0 0 512 512" version="1.1" xmlns="http://www.w3.org/2000/svg" xmlns:xlink="http://www.w3.org/1999/xlink" xml:space="preserve" xmlns:serif="http://www.serif.com/" style="fill-rule:evenodd;clip-rule:evenodd;stroke-linejoin:round;stroke-miterlimit:2;">
    <g transform="matrix(1,0,0,1,0,-5)">
        <path d="M464,64L48,64C21.49,64 0,85.49 0,112L0,400C0,426.51 21.49,448 48,448L464,448C490.51,448 512,426.51 512,400L512,112C512,85.49 490.51,64 464,64ZM460.062,102.112C467.76,102.112 474,108.352 474,116.05C474,132.254 474,156.805 474,156.805C451.578,175.064 405.832,203.456 329.413,263.295C312.572,276.542 279.212,308.367 256,307.996C232.792,308.371 199.421,276.537 182.587,263.295C106.18,203.465 60.832,175.067 38.407,156.805L38.407,116.05C38.407,108.352 44.648,102.112 52.345,102.112C117.839,102.112 394.568,102.112 460.062,102.112ZM52.376,410C44.661,410 38.407,403.746 38.407,396.031C38.407,349.908 38.407,205.398 38.407,205.398C61.321,223.649 103.409,249.26 152.938,288.044C174.795,305.249 213.072,343.23 256,342.999C298.717,343.23 336.509,305.8 359.053,288.052C408.581,249.269 451.085,223.651 474,205.399L474,396.062C474,403.76 467.76,410 460.062,410C394.578,410 117.927,410 52.376,410Z" style="fill:rgb(180,197,228);fill-rule:nonzero;"/>
    </g>
</svg>
