<?xml version="1.0" encoding="UTF-8" standalone="no"?>
<!DOCTYPE svg PUBLIC "-//W3C//DTD SVG 1.1//EN" "http://www.w3.org/Graphics/SVG/1.1/DTD/svg11.dtd">
<svg width="100%" height="100%" viewBox="0 0 512 512" version="1.1" xmlns="http://www.w3.org/2000/svg" xmlns:xlink="http://www.w3.org/1999/xlink" xml:space="preserve" xmlns:serif="http://www.serif.com/" style="fill-rule:evenodd;clip-rule:evenodd;stroke-linejoin:round;stroke-miterlimit:2;">
    <g>
        <path d="M251.14,53.64C235.52,38.02 210.2,38.02 194.58,53.64L75.8,172.43C69.55,178.68 69.55,188.81 75.8,195.05L98.43,217.68C104.68,223.93 114.81,223.93 121.06,217.68L222.88,115.86L245.51,138.48L93.95,290.03C41.464,342.516 8.379,411.339 0.17,485.11L0.14,485.34C-1.56,500.62 11.35,513.54 26.63,511.85C100.496,503.694 169.42,470.597 221.97,418.05L418.76,221.26L251.14,53.64ZM239.231,65.035C226.33,52.372 211.292,58.246 198.391,70.909L93.305,174.085C88.143,179.152 88.143,187.364 93.305,192.423L98.315,197.088C103.477,202.155 111.843,202.155 117.005,197.088L223.103,92.651L270.372,139.567L95.327,311.653C51.977,354.203 24.652,409.997 17.872,469.802L17.847,469.989C16.443,482.376 27.105,492.85 39.726,491.48C100.733,484.868 157.659,458.037 201.061,415.438L395.438,218.745L330.082,154.594L239.231,65.035Z" style="fill:rgb(180,197,228);"/>
        <path d="M497.94,74.17L437.83,14.06C419.08,-4.69 388.67,-4.69 369.92,14.06L313.37,70.61L441.39,198.63L497.94,142.08C516.69,123.33 516.69,92.93 497.94,74.17ZM479.748,79.822L432.773,32.847C418.12,18.194 394.355,18.194 379.702,32.847L340.379,72.17L440.425,172.216L479.748,132.893C494.401,118.24 494.401,94.483 479.748,79.822Z" style="fill:rgb(180,197,228);"/>
    </g>
</svg>
