<?xml version="1.0" encoding="UTF-8" standalone="no"?>
<!DOCTYPE svg PUBLIC "-//W3C//DTD SVG 1.1//EN" "http://www.w3.org/Graphics/SVG/1.1/DTD/svg11.dtd">
<svg width="100%" height="100%" viewBox="0 0 512 512" version="1.1" xmlns="http://www.w3.org/2000/svg" xmlns:xlink="http://www.w3.org/1999/xlink" xml:space="preserve" xmlns:serif="http://www.serif.com/" style="fill-rule:evenodd;clip-rule:evenodd;stroke-linejoin:round;stroke-miterlimit:2;">
    <g transform="matrix(0.787115,0,0,0.787115,63.9977,54.4999)">
        <path d="M497.94,74.17L437.83,14.06C419.08,-4.69 388.67,-4.69 369.92,14.06L313.37,70.61L441.39,198.63L497.94,142.08C516.69,123.33 516.69,92.93 497.94,74.17ZM251.14,53.64C235.52,38.02 210.2,38.02 194.58,53.64L75.8,172.43C69.55,178.68 69.55,188.81 75.8,195.05L98.43,217.68C104.68,223.93 114.81,223.93 121.06,217.68L222.88,115.86L245.51,138.48L93.95,290.03C41.464,342.516 8.379,411.339 0.17,485.11L0.14,485.34C-1.56,500.62 11.35,513.54 26.63,511.85C100.496,503.694 169.42,470.597 221.97,418.05L418.76,221.26L251.14,53.64Z" style="fill:url(#_Linear1);fill-rule:nonzero;"/>
    </g>
    <defs>
        <linearGradient id="_Linear1" x1="0" y1="0" x2="1" y2="0" gradientUnits="userSpaceOnUse" gradientTransform="matrix(-524,527,-527,-524,468,40)"><stop offset="0" style="stop-color:rgb(248,67,95);stop-opacity:1"/><stop offset="1" style="stop-color:rgb(134,67,248);stop-opacity:1"/></linearGradient>
    </defs>
</svg>
