<svg width="393" height="393" viewBox="0 0 393 393" fill="none" xmlns="http://www.w3.org/2000/svg">
<path d="M393 196.5C393 305.024 305.024 393 196.5 393C87.976 393 0 305.024 0 196.5C0 87.976 87.976 0 196.5 0C305.024 0 393 87.976 393 196.5Z" fill="#385C6B"/>
<path d="M293.215 333.896V364.6C293.215 366.719 291.496 368.438 289.377 368.438H103.623C101.504 368.438 99.7852 366.719 99.7852 364.6V333.896C99.7852 331.777 101.504 330.059 103.623 330.059H289.377C291.496 330.059 293.215 331.777 293.215 333.896Z" fill="#1E233C"/>
<path d="M117.377 322.383H86.6741V130.488H117.377V322.383Z" fill="#5A6482"/>
<path d="M99.7852 322.383H84.4336V130.488H99.7852V322.383Z" fill="#41465F"/>
<path d="M188.7 112.896C188.7 160.765 149.894 199.57 102.026 199.57C54.1572 199.57 15.3516 160.765 15.3516 112.896C15.3516 65.0276 54.1572 26.2219 102.026 26.2219C149.894 26.2219 188.7 65.0268 188.7 112.896Z" fill="#1E233C"/>
<path d="M170.996 112.896C170.996 150.988 140.117 181.867 102.026 181.867C63.9347 181.867 33.055 150.987 33.055 112.896C33.055 74.805 63.9347 43.9253 102.026 43.9253C140.117 43.9253 170.996 74.8042 170.996 112.896Z" fill="#E6FAFF"/>
<path d="M170.997 112.896C170.997 150.988 140.118 181.867 102.026 181.867C97.4832 181.867 93.0466 181.415 88.7489 180.577C120.485 174.385 144.443 146.444 144.443 112.895C144.443 79.3468 120.486 51.4054 88.7489 45.2141C93.0466 44.3759 97.4832 43.9238 102.026 43.9238C140.118 43.9246 170.997 74.8043 170.997 112.896Z" fill="#AFEBD2"/>
<path d="M138.334 87.2154L105.04 120.51C102.495 123.055 98.369 123.055 95.8237 120.51L94.4121 119.098C91.8676 116.554 91.8676 112.427 94.4121 109.882L127.707 76.5867C130.253 74.0414 134.378 74.0414 136.924 76.5867L138.335 77.9983C140.88 80.5443 140.88 84.6701 138.334 87.2154Z" fill="#FF6E55"/>
<path d="M117.056 112.896C117.056 121.197 110.326 127.926 102.026 127.926C93.7251 127.926 86.9958 121.197 86.9958 112.896C86.9958 104.596 93.7251 97.8662 102.026 97.8662C110.326 97.8662 117.056 104.596 117.056 112.896Z" fill="#5A6482"/>
<path d="M330.059 197.898V310.103C330.059 314.342 326.622 317.779 322.383 317.779H182.684C178.444 317.779 175.008 314.342 175.008 310.103V197.898C175.008 193.659 178.444 190.223 182.684 190.223H322.383C326.622 190.223 330.059 193.659 330.059 197.898Z" fill="#D29650"/>
<path d="M266.957 317.78H238.11V190.224H266.957V317.78Z" fill="#AA6432"/>
<path d="M266.957 190.223V227.633H261.548L252.533 218.618L243.519 227.633H238.11V190.223H266.957Z" fill="#FFF5F5"/>
<path d="M310.931 356.251C278.702 379.378 239.193 393 196.5 393C153.807 393 114.298 379.378 82.0695 356.251C82.7641 355.268 83.9047 354.621 85.2012 354.621H307.799C309.095 354.621 310.236 355.268 310.931 356.251ZM343.107 314.707H49.8926C47.7733 314.707 46.0547 316.426 46.0547 318.545V322.892C50.413 328.075 55.033 333.03 59.8964 337.734H333.104C337.967 333.029 342.587 328.075 346.945 322.892V318.545C346.945 316.426 345.227 314.707 343.107 314.707Z" fill="#41465F"/>
</svg>
