<svg width="332" height="322" viewBox="0 0 332 322" fill="none" xmlns="http://www.w3.org/2000/svg">
<g clip-path="url(#clip0)">
<path d="M332 166.597C332 255.481 257.679 327.536 166 327.536C74.3207 327.536 0 255.481 0 166.597C0 77.7128 74.3207 5.65802 166 5.65802C257.679 5.65802 332 77.7128 332 166.597Z" fill="#315462"/>
<path d="M322.845 213.747C300.302 276.691 238.598 321.878 166 321.878C93.4016 321.878 31.6982 276.691 9.15465 213.747H322.845Z" fill="#603650"/>
<path d="M287.747 270.327C283.512 274.756 279.028 278.957 274.308 282.901H57.6921C52.9715 278.957 48.4882 274.756 44.2533 270.327H287.747Z" fill="#41465F"/>
<path d="M136.82 251.467C136.82 268.827 122.304 282.901 104.398 282.901C86.4925 282.901 71.9766 268.827 71.9766 251.467C71.9766 234.107 86.4925 220.034 104.398 220.034C122.304 220.034 136.82 234.107 136.82 251.467ZM227.602 220.034C209.696 220.034 195.18 234.107 195.18 251.467C195.18 268.827 209.696 282.901 227.602 282.901C245.508 282.901 260.023 268.827 260.023 251.467C260.023 234.107 245.508 220.034 227.602 220.034Z" fill="#788CAA"/>
<path d="M123.852 251.467C123.852 261.884 115.142 270.327 104.398 270.327C93.6545 270.327 84.9453 261.884 84.9453 251.467C84.9453 241.051 93.6545 232.607 104.398 232.607C115.142 232.607 123.852 241.051 123.852 251.467ZM227.602 232.607C216.858 232.607 208.148 241.051 208.148 251.467C208.148 261.884 216.858 270.327 227.602 270.327C238.346 270.327 247.055 261.884 247.055 251.467C247.055 241.051 238.346 232.607 227.602 232.607Z" fill="#B4C8E1"/>
<path d="M312.547 188.6C312.547 192.072 309.644 194.887 306.062 194.887C302.481 194.887 299.578 192.072 299.578 188.6C299.578 181.667 293.76 176.027 286.609 176.027C283.028 176.027 280.125 173.212 280.125 169.74C280.125 166.269 283.028 163.454 286.609 163.454C300.911 163.454 312.547 174.735 312.547 188.6Z" fill="#6D7D99"/>
<path d="M332 182.314C332 185.785 329.097 188.6 325.516 188.6C321.934 188.6 319.031 185.785 319.031 182.314C319.031 168.448 307.396 157.167 293.094 157.167C289.512 157.167 286.609 154.352 286.609 150.88C286.609 147.409 289.512 144.594 293.094 144.594C314.547 144.594 332 161.515 332 182.314Z" fill="#8CA0BE"/>
<path d="M160.145 117.789C160.145 121.261 157.242 124.076 153.661 124.076H58.3594C54.7781 124.076 51.875 121.261 51.875 117.789V44.0068C51.875 40.5346 54.7781 37.7201 58.3594 37.7201H153.661C157.242 37.7201 160.145 40.5346 160.145 44.0068V117.789ZM260.672 122.048H165.37C161.789 122.048 158.886 124.862 158.886 128.334V202.117C158.886 205.589 161.789 208.403 165.37 208.403H260.672C264.253 208.403 267.156 205.589 267.156 202.117V128.334C267.156 124.863 264.253 122.048 260.672 122.048Z" fill="#E6B464"/>
<path d="M160.145 128.334V202.117C160.145 205.589 157.242 208.403 153.661 208.403H58.3594C54.7781 208.403 51.875 205.589 51.875 202.117V128.334C51.875 124.862 54.7781 122.048 58.3594 122.048H153.661C157.242 122.048 160.145 124.863 160.145 128.334Z" fill="#D29650"/>
<path d="M116.082 208.403H95.9389V122.048H116.082V208.403Z" fill="#AA6432"/>
<path d="M95.9383 37.7201H116.081V124.076H95.9383V37.7201ZM202.949 122.048V208.403H223.092V122.048H202.949Z" fill="#D29650"/>
<path d="M95.9383 37.7201H116.081V63.0472H112.304L106.009 56.9441L99.7141 63.0472H95.937V37.7201H95.9383ZM95.9383 147.375H99.7154L106.01 141.272L112.305 147.375H116.083V122.048H95.9396V147.375H95.9383ZM202.949 122.048V147.375H206.726L213.021 141.272L219.316 147.375H223.094V122.048H202.949Z" fill="#F0D287"/>
<path d="M293.094 188.6V207.46V226.32V245.181C293.094 248.653 290.191 251.467 286.609 251.467H45.3906C41.8093 251.467 38.9062 248.653 38.9062 245.181V207.46C38.9062 203.988 41.8093 201.174 45.3906 201.174H170.215L190.979 185.069C193.278 183.286 196.136 182.314 199.081 182.314H286.609C290.191 182.314 293.094 185.128 293.094 188.6Z" fill="#E76F51"/>
<path d="M259.375 201.174C259.375 197.702 262.278 194.887 265.859 194.887C269.441 194.887 272.344 197.702 272.344 201.174C272.344 204.646 269.441 207.46 265.859 207.46C262.278 207.46 259.375 204.646 259.375 201.174Z" fill="#FFEB50"/>
<path d="M60.3047 207.46V245.181C60.3047 248.653 63.2077 251.467 66.7891 251.467H45.3906C41.8093 251.467 38.9062 248.653 38.9062 245.181V207.46C38.9062 203.988 41.8093 201.174 45.3906 201.174H66.7891C63.2077 201.174 60.3047 203.988 60.3047 207.46ZM243.164 194.887C239.583 194.887 236.68 197.702 236.68 201.174C236.68 204.646 239.583 207.46 243.164 207.46C246.745 207.46 249.648 204.646 249.648 201.174C249.648 197.702 246.745 194.887 243.164 194.887Z" fill="#2A9D8F"/>
</g>
<defs>
<clipPath id="clip0">
<rect width="332" height="321.878" fill="white"/>
</clipPath>
</defs>
</svg>
