<svg width="518" height="518" viewBox="0 0 518 518" fill="none" xmlns="http://www.w3.org/2000/svg">
<g filter="url(#filter0_d)">
<path d="M514 255C514 395.833 399.833 510 259 510C118.167 510 4 395.833 4 255C4 114.167 118.167 0 259 0C399.833 0 514 114.167 514 255Z" fill="#82DCE6"/>
<path d="M153.414 74.707C153.414 66.4554 160.104 59.7656 168.355 59.7656H248.043V44.8242C248.043 36.5726 254.733 29.8828 262.984 29.8828H337.691C345.943 29.8828 352.633 36.5726 352.633 44.8242C352.633 53.0759 345.943 59.7656 337.691 59.7656H287.887C279.635 59.7656 272.945 66.4554 272.945 74.707C272.945 82.9587 279.635 89.6484 287.887 89.6484H377.535C385.787 89.6484 392.477 96.3382 392.477 104.59C392.477 112.841 385.787 119.531 377.535 119.531H243.062C234.811 119.531 228.121 112.841 228.121 104.59V89.6484H168.355C160.104 89.6484 153.414 82.9587 153.414 74.707ZM337.691 199.219H248.043C239.791 199.219 233.102 192.529 233.102 184.277C233.102 176.026 239.791 169.336 248.043 169.336H297.848C306.099 169.336 312.789 162.646 312.789 154.395C312.789 146.143 306.099 139.453 297.848 139.453H223.141C214.889 139.453 208.199 146.143 208.199 154.395V169.336H128.512C120.26 169.336 113.57 176.026 113.57 184.277C113.57 192.529 120.26 199.219 128.512 199.219H188.277V214.16C188.277 222.412 194.967 229.102 203.219 229.102H337.691C345.943 229.102 352.633 222.412 352.633 214.16C352.633 205.909 345.943 199.219 337.691 199.219ZM505.427 189.258H477.145C468.893 189.258 462.203 182.568 462.203 174.316C462.203 166.065 468.893 159.375 477.145 159.375H495.445C491.27 149.061 486.443 139.084 481.009 129.492H452.242C443.991 129.492 437.301 136.182 437.301 144.434V159.375H357.613C349.362 159.375 342.672 166.065 342.672 174.316C342.672 182.568 349.362 189.258 357.613 189.258H417.379V204.199C417.379 212.451 424.069 219.141 432.32 219.141H511.478C510.047 208.974 508.02 199.002 505.427 189.258Z" fill="#AFF0F5"/>
<path d="M312.789 118.309V399.434H48.8402C44.1336 392.598 39.7598 385.517 35.7246 378.223H36.2376V355.603V335.201V224.765C36.2376 222.07 34.0531 219.886 31.3587 219.886H6.41852C15.5069 153.933 49.8054 96.0304 99.2893 56.2205L305.284 108.656C309.699 109.779 312.789 113.755 312.789 118.309Z" fill="#D29650"/>
<path d="M316.01 111.379C318.217 111.941 319.762 113.928 319.762 116.206V129.379C319.762 132.632 316.693 135.013 313.542 134.203L79.4243 74.0456C85.7365 67.7742 92.3486 61.8046 99.2894 56.2205L316.01 111.379Z" fill="#B9783D"/>
<path d="M233.102 170.332V399.434H48.8401C44.1336 392.598 39.7597 385.517 35.7246 378.223H36.2376V355.603V335.201V224.765C36.2376 222.07 34.0531 219.886 31.3587 219.886H6.40753C9.77433 195.454 16.5936 172.123 26.3712 150.41H213.18C224.183 150.41 233.102 159.329 233.102 170.332Z" fill="#41465F"/>
<path d="M233.102 160.371V399.434H203.717V179.795H15.2787C18.3846 169.719 22.094 159.91 26.3722 150.41H223.141C228.642 150.41 233.102 154.87 233.102 160.371Z" fill="#323750"/>
<path d="M499.937 338.672C465.307 438.403 370.522 510 259 510C162.863 510 79.1693 456.791 35.7206 378.223H36.2376V355.603V338.672H499.937Z" fill="#41465F"/>
<path d="M198.238 383.722C198.238 402.852 182.731 418.359 163.601 418.359C144.471 418.359 128.964 402.852 128.964 383.722C128.964 364.593 144.471 349.085 163.601 349.085C182.731 349.085 198.238 364.593 198.238 383.722ZM312.56 349.086C293.431 349.086 277.923 364.593 277.923 383.723C277.923 402.852 293.43 418.36 312.56 418.36C331.69 418.36 347.197 402.853 347.197 383.723C347.196 364.593 331.689 349.086 312.56 349.086Z" fill="#1E233C"/>
<path d="M329.089 335.956V379.874H36.636C27.1443 363.008 19.5122 344.958 14.0257 325.995H319.127C324.629 325.995 329.089 330.454 329.089 335.956Z" fill="#F7D139"/>
<path d="M329.089 223.216V356.783H25.1441C11.5544 325.602 4 291.186 4 255C4 242.513 4.91441 230.242 6.64861 218.235H324.109C326.859 218.235 329.089 220.464 329.089 223.216Z" fill="#FFEB50"/>
<path d="M284.395 264.883H134.98C132.23 264.883 130 262.653 130 259.902V239.98C130 237.23 132.23 235 134.98 235H284.395C287.145 235 289.375 237.23 289.375 239.98V259.902C289.375 262.653 287.145 264.883 284.395 264.883Z" fill="#F7D139"/>
<path d="M442.281 379.874H323.747C318.246 379.874 313.786 375.415 313.786 369.913V335.956C313.786 330.454 318.246 325.995 323.747 325.995H442.281C447.783 325.995 452.242 330.454 452.242 335.956V369.913C452.242 375.414 447.783 379.874 442.281 379.874Z" fill="#D9593F"/>
<path d="M372.555 233.629H323.655C318.154 233.629 313.695 238.088 313.695 243.59V356.782H452.242V313.316C452.242 269.307 416.565 233.629 372.555 233.629ZM337.691 338.672H327.73C324.98 338.672 322.75 336.442 322.75 333.691C322.75 330.941 324.98 328.711 327.73 328.711H337.691C340.442 328.711 342.672 330.941 342.672 333.691C342.672 336.442 340.442 338.672 337.691 338.672Z" fill="#FF6E55"/>
<path d="M437.301 308.789H452.106C452.189 310.288 452.242 311.796 452.242 313.316V338.672H437.301C429.049 338.672 422.359 331.982 422.359 323.73C422.359 315.479 429.049 308.789 437.301 308.789Z" fill="#FFEB50"/>
<path d="M452.242 318.297H382.969C365.965 318.297 352.181 304.513 352.181 287.509V233.629H390.666C424.673 233.629 452.242 261.198 452.242 295.205V318.297Z" fill="#4B556E"/>
<path d="M452.242 295.206V318.298H422.813V295.206C422.813 261.199 395.244 233.63 361.236 233.63H390.667C424.673 233.629 452.242 261.198 452.242 295.206Z" fill="#5A6482"/>
<path d="M103.156 383.722C103.156 402.851 87.649 418.359 68.519 418.359C49.389 418.359 33.8828 402.852 33.8828 383.722C33.8828 364.593 49.39 349.085 68.52 349.085C87.65 349.085 103.156 364.593 103.156 383.722ZM202.087 349.086C182.957 349.086 167.45 364.593 167.45 383.723C167.45 402.852 182.957 418.36 202.087 418.36C221.216 418.36 236.723 402.853 236.723 383.723C236.723 364.593 221.216 349.086 202.087 349.086ZM351.045 349.086C331.915 349.086 316.408 364.593 316.408 383.723C316.408 402.852 331.915 418.36 351.045 418.36C370.174 418.36 385.682 402.853 385.682 383.723C385.682 364.593 370.174 349.086 351.045 349.086Z" fill="#788CAA"/>
<path d="M217.481 383.722C217.481 392.224 210.589 399.117 202.087 399.117C193.586 399.117 186.693 392.225 186.693 383.722C186.693 375.221 193.585 368.328 202.087 368.328C210.589 368.329 217.481 375.221 217.481 383.722ZM68.52 368.329C60.0183 368.329 53.1254 375.221 53.1254 383.723C53.1254 392.225 60.0173 399.118 68.52 399.118C77.0227 399.118 83.9146 392.226 83.9146 383.723C83.9136 375.221 77.0217 368.329 68.52 368.329ZM351.045 368.329C342.543 368.329 335.65 375.221 335.65 383.723C335.65 392.225 342.542 399.118 351.045 399.118C359.547 399.118 366.439 392.226 366.439 383.723C366.439 375.221 359.547 368.329 351.045 368.329Z" fill="#B4C8E1"/>
<path d="M123.625 309H117.695L102.484 284.789V309H96.5547V274.875H102.484L117.742 299.18V274.875H123.625V309ZM145.234 309C144.984 308.516 144.766 307.727 144.578 306.633C142.766 308.523 140.547 309.469 137.922 309.469C135.375 309.469 133.297 308.742 131.688 307.289C130.078 305.836 129.273 304.039 129.273 301.898C129.273 299.195 130.273 297.125 132.273 295.688C134.289 294.234 137.164 293.508 140.898 293.508H144.391V291.844C144.391 290.531 144.023 289.484 143.289 288.703C142.555 287.906 141.438 287.508 139.938 287.508C138.641 287.508 137.578 287.836 136.75 288.492C135.922 289.133 135.508 289.953 135.508 290.953H129.812C129.812 289.562 130.273 288.266 131.195 287.062C132.117 285.844 133.367 284.891 134.945 284.203C136.539 283.516 138.312 283.172 140.266 283.172C143.234 283.172 145.602 283.922 147.367 285.422C149.133 286.906 150.039 289 150.086 291.703V303.141C150.086 305.422 150.406 307.242 151.047 308.602V309H145.234ZM138.977 304.898C140.102 304.898 141.156 304.625 142.141 304.078C143.141 303.531 143.891 302.797 144.391 301.875V297.094H141.32C139.211 297.094 137.625 297.461 136.562 298.195C135.5 298.93 134.969 299.969 134.969 301.312C134.969 302.406 135.328 303.281 136.047 303.938C136.781 304.578 137.758 304.898 138.977 304.898ZM169.328 288.844C168.578 288.719 167.805 288.656 167.008 288.656C164.398 288.656 162.641 289.656 161.734 291.656V309H156.039V283.641H161.477L161.617 286.477C162.992 284.273 164.898 283.172 167.336 283.172C168.148 283.172 168.82 283.281 169.352 283.5L169.328 288.844Z" fill="#FB8B24"/>
<path d="M184.062 277.477V283.641H188.539V287.859H184.062V302.016C184.062 302.984 184.25 303.688 184.625 304.125C185.016 304.547 185.703 304.758 186.688 304.758C187.344 304.758 188.008 304.68 188.68 304.523V308.93C187.383 309.289 186.133 309.469 184.93 309.469C180.555 309.469 178.367 307.055 178.367 302.227V287.859H174.195V283.641H178.367V277.477H184.062ZM204.078 309.469C200.469 309.469 197.539 308.336 195.289 306.07C193.055 303.789 191.938 300.758 191.938 296.977V296.273C191.938 293.742 192.422 291.484 193.391 289.5C194.375 287.5 195.75 285.945 197.516 284.836C199.281 283.727 201.25 283.172 203.422 283.172C206.875 283.172 209.539 284.273 211.414 286.477C213.305 288.68 214.25 291.797 214.25 295.828V298.125H197.68C197.852 300.219 198.547 301.875 199.766 303.094C201 304.312 202.547 304.922 204.406 304.922C207.016 304.922 209.141 303.867 210.781 301.758L213.852 304.688C212.836 306.203 211.477 307.383 209.773 308.227C208.086 309.055 206.188 309.469 204.078 309.469ZM203.398 287.742C201.836 287.742 200.57 288.289 199.602 289.383C198.648 290.477 198.039 292 197.773 293.953H208.625V293.531C208.5 291.625 207.992 290.188 207.102 289.219C206.211 288.234 204.977 287.742 203.398 287.742ZM227.797 291.984L232.625 283.641H238.953L231.195 296.133L239.211 309H232.93L227.867 300.328L222.828 309H216.5L224.516 296.133L216.781 283.641H223.062L227.797 291.984Z" fill="#DAD2D2"/>
</g>
<defs>
<filter id="filter0_d" x="0" y="0" width="518" height="518" filterUnits="userSpaceOnUse" color-interpolation-filters="sRGB">
<feFlood flood-opacity="0" result="BackgroundImageFix"/>
<feColorMatrix in="SourceAlpha" type="matrix" values="0 0 0 0 0 0 0 0 0 0 0 0 0 0 0 0 0 0 127 0"/>
<feOffset dy="4"/>
<feGaussianBlur stdDeviation="2"/>
<feColorMatrix type="matrix" values="0 0 0 0 0 0 0 0 0 0 0 0 0 0 0 0 0 0 0.25 0"/>
<feBlend mode="normal" in2="BackgroundImageFix" result="effect1_dropShadow"/>
<feBlend mode="normal" in="SourceGraphic" in2="effect1_dropShadow" result="shape"/>
</filter>
</defs>
</svg>
