<svg width="512" height="512" viewBox="0 0 512 512" fill="none" xmlns="http://www.w3.org/2000/svg">
<g clip-path="url(#clip0)">
<path d="M512 265C512 406.385 397.385 521 256 521C114.615 521 0 406.385 0 265C0 123.615 114.615 9 256 9C397.385 9 512 123.615 512 265Z" fill="#81B29A"/>
<path d="M497.882 340C463.116 440.122 367.959 512 256 512C144.041 512 48.884 440.122 14.118 340H497.882Z" fill="#603650"/>
<path d="M443.754 430C437.223 437.044 430.308 443.727 423.029 450H88.971C81.691 443.727 74.777 437.044 68.246 430H443.754Z" fill="#41465F"/>
<path d="M211 400C211 427.614 188.614 450 161 450C133.386 450 111 427.614 111 400C111 372.386 133.386 350 161 350C188.614 350 211 372.386 211 400ZM351 350C323.386 350 301 372.386 301 400C301 427.614 323.386 450 351 450C378.614 450 401 427.614 401 400C401 372.386 378.614 350 351 350Z" fill="#788CAA"/>
<path d="M191 400C191 416.569 177.569 430 161 430C144.431 430 131 416.569 131 400C131 383.431 144.431 370 161 370C177.569 370 191 383.431 191 400ZM351 370C334.431 370 321 383.431 321 400C321 416.569 334.431 430 351 430C367.569 430 381 416.569 381 400C381 383.431 367.569 370 351 370Z" fill="#B4C8E1"/>
<path d="M482 300C482 305.522 477.523 310 472 310C466.477 310 462 305.522 462 300C462 288.972 453.028 280 442 280C436.477 280 432 275.522 432 270C432 264.478 436.477 260 442 260C464.056 260 482 277.944 482 300Z" fill="#6D7D99"/>
<path d="M512 290C512 295.522 507.523 300 502 300C496.477 300 492 295.522 492 290C492 267.944 474.056 250 452 250C446.477 250 442 245.522 442 240C442 234.478 446.477 230 452 230C485.084 230 512 256.916 512 290Z" fill="#8CA0BE"/>
<path d="M246.971 187.363C246.971 192.886 242.494 197.363 236.971 197.363H90C84.477 197.363 80 192.886 80 187.363V70C80 64.477 84.477 60 90 60H236.971C242.494 60 246.971 64.477 246.971 70V187.363ZM402 194.137H255.029C249.506 194.137 245.029 198.614 245.029 204.137V321.5C245.029 327.023 249.506 331.5 255.029 331.5H402C407.523 331.5 412 327.023 412 321.5V204.137C412 198.615 407.523 194.137 402 194.137Z" fill="#E6B464"/>
<path d="M246.971 204.137V321.5C246.971 327.023 242.494 331.5 236.971 331.5H90C84.477 331.5 80 327.023 80 321.5V204.137C80 198.614 84.477 194.137 90 194.137H236.971C242.494 194.137 246.971 198.615 246.971 204.137Z" fill="#D29650"/>
<path d="M179.018 331.5H147.954V194.137H179.018V331.5Z" fill="#AA6432"/>
<path d="M147.953 60H179.017V197.363H147.953V60ZM312.982 194.137V331.5H344.046V194.137H312.982Z" fill="#D29650"/>
<path d="M147.953 60H179.017V100.287H173.192L163.484 90.579L153.776 100.287H147.951V60H147.953ZM147.953 234.424H153.778L163.486 224.716L173.194 234.424H179.019V194.137H147.955V234.424H147.953ZM312.982 194.137V234.424H318.807L328.515 224.716L338.223 234.424H344.048V194.137H312.982Z" fill="#F0D287"/>
<path d="M452 300V330V360V390C452 395.523 447.523 400 442 400H70C64.477 400 60 395.523 60 390V330C60 324.477 64.477 320 70 320H262.5L294.522 294.383C298.068 291.546 302.475 290 307.016 290H442C447.523 290 452 294.477 452 300Z" fill="#E76F51"/>
<path d="M400 320C400 314.477 404.477 310 410 310C415.523 310 420 314.477 420 320C420 325.523 415.523 330 410 330C404.477 330 400 325.523 400 320Z" fill="#FFEB50"/>
<path d="M93 330V390C93 395.523 97.477 400 103 400H70C64.477 400 60 395.523 60 390V330C60 324.477 64.477 320 70 320H103C97.477 320 93 324.477 93 330ZM375 310C369.477 310 365 314.477 365 320C365 325.523 369.477 330 375 330C380.523 330 385 325.523 385 320C385 314.477 380.523 310 375 310Z" fill="#2A9D8F"/>
</g>
<defs>
<clipPath id="clip0">
<rect width="512" height="512" fill="white"/>
</clipPath>
</defs>
</svg>
