<svg width="393" height="393" viewBox="0 0 393 393" fill="none" xmlns="http://www.w3.org/2000/svg">
<path d="M393 196.5C393 305.024 305.024 393 196.5 393C87.976 393 0 305.024 0 196.5C0 87.976 87.976 0 196.5 0C305.024 0 393 87.976 393 196.5Z" fill="#41465F"/>
<path d="M168.867 38.3789V84.4336C168.867 88.6729 165.431 92.1094 161.191 92.1094H110.019C105.78 92.1094 102.343 88.6729 102.343 84.4336V38.3789C102.343 34.1396 105.78 30.7031 110.019 30.7031H161.191C165.431 30.7031 168.867 34.1396 168.867 38.3789ZM250.742 30.7031H199.57C195.331 30.7031 191.895 34.1396 191.895 38.3789V84.4336C191.895 88.6729 195.331 92.1094 199.57 92.1094H250.742C254.982 92.1094 258.418 88.6729 258.418 84.4336V38.3789C258.418 34.1396 254.981 30.7031 250.742 30.7031ZM161.191 145.84H110.019C105.78 145.84 102.343 149.276 102.343 153.516V199.57C102.343 203.81 105.78 207.246 110.019 207.246H161.191C165.431 207.246 168.867 203.81 168.867 199.57V153.516C168.867 149.276 165.431 145.84 161.191 145.84ZM250.742 145.84H199.57C195.331 145.84 191.895 149.276 191.895 153.516V199.57C191.895 203.81 195.331 207.246 199.57 207.246H250.742C254.982 207.246 258.418 203.81 258.418 199.57V153.516C258.418 149.276 254.981 145.84 250.742 145.84ZM386.393 145.84H337.734C333.495 145.84 330.059 149.276 330.059 153.516V199.57C330.059 203.81 333.495 207.246 337.734 207.246H388.906C390.313 207.246 391.627 206.862 392.76 206.201C392.916 202.987 393 199.753 393 196.5C393 178.982 390.695 162.004 386.393 145.84Z" fill="#D29650"/>
<path d="M307.031 199.57V107.461H371.71C367.632 99.4505 363.013 91.7632 357.915 84.4336H307.031V34.0214C299.697 29.0222 292.004 24.5126 284.004 20.5266V84.4336H84.4336V35.0853C76.2888 40.7508 68.5892 47.0104 61.4062 53.8134V84.4336H35.0852C29.987 91.7632 25.3685 99.4505 21.2895 107.461H61.4062V199.57H0.0391464C0.158889 207.364 0.726897 215.049 1.72859 222.598H61.4062V330.059H84.4336V222.598H284.004V330.059H307.031V222.598H391.271C392.273 215.049 392.842 207.364 392.961 199.57H307.031ZM284.004 199.57H84.4336V107.461H284.004V199.57Z" fill="#5A6482"/>
<path d="M347.376 322.383C311.33 365.538 257.126 393 196.5 393C135.874 393 81.6695 365.538 45.6241 322.383H347.376Z" fill="#1E233C"/>
<path d="M184.219 360.762H36.8438C32.6044 360.762 29.168 357.325 29.168 353.086V226.249C29.168 222.01 32.6044 218.573 36.8438 218.573H184.219C188.458 218.573 191.895 222.01 191.895 226.249V353.086C191.895 357.325 188.458 360.762 184.219 360.762Z" fill="#E6B464"/>
<path d="M36.8438 218.573H70.2449V360.762H36.8438C32.6044 360.762 29.168 357.325 29.168 353.086V226.249C29.168 222.01 32.6044 218.573 36.8438 218.573ZM165.029 322.383C158.671 322.383 153.516 327.538 153.516 333.896C153.516 340.255 158.671 345.41 165.029 345.41C171.388 345.41 176.543 340.255 176.543 333.896C176.543 327.538 171.388 322.383 165.029 322.383ZM134.326 322.383C127.968 322.383 122.812 327.538 122.812 333.896C122.812 340.255 127.968 345.41 134.326 345.41C140.685 345.41 145.84 340.255 145.84 333.896C145.84 327.538 140.685 322.383 134.326 322.383Z" fill="#D29650"/>
<path d="M133.047 49.8926V57.5684C133.047 59.6876 131.328 61.4062 129.209 61.4062H102.343V46.0547H129.209C131.329 46.0547 133.047 47.7733 133.047 49.8926ZM129.209 161.191H102.343V176.543H129.209C131.328 176.543 133.047 174.824 133.047 172.705V165.029C133.047 162.91 131.329 161.191 129.209 161.191ZM356.924 161.191H330.059V176.543H356.924C359.043 176.543 360.762 174.824 360.762 172.705V165.029C360.762 162.91 359.043 161.191 356.924 161.191ZM218.76 161.191H191.895V176.543H218.76C220.879 176.543 222.598 174.824 222.598 172.705V165.029C222.598 162.91 220.879 161.191 218.76 161.191ZM218.76 46.0547H191.895V61.4062H218.76C220.879 61.4062 222.598 59.6876 222.598 57.5684V49.8926C222.598 47.7733 220.879 46.0547 218.76 46.0547ZM106.321 245.625H69.082V272.677H106.321C108.44 272.677 110.159 270.958 110.159 268.839V249.463C110.159 247.344 108.44 245.625 106.321 245.625Z" fill="#FFFF91"/>
<path d="M70.2449 272.677H29.168V245.625H70.2449V272.677Z" fill="#F7D139"/>
</svg>
